<svg xmlns="http://www.w3.org/2000/svg" xmlns:xlink="http://www.w3.org/1999/xlink" version="1.1">
	<defs>
		<!-- Menu close -->
		<symbol id="close" viewBox="0 0 26 14">
			<title>
				Close
			</title>
			<polygon style="fill: currentColor" points="25.4,1.9 24.6,0.1 13,5.9 1.4,0.1 0.6,1.9 10.8,7 0.6,12.1 1.4,13.9 13,8.1 24.6,13.9 25.4,12.1 
				15.2,7 "/>
		</symbol>
		
		<!-- Menu -->
		<symbol id="menu" viewBox="0 0 26 14">
			<title>
				Menu
			</title>
			<rect style="fill: currentColor" width="26" height="2"/>
			<rect y="6" style="fill: currentColor" width="26" height="2"/>
			<rect y="12" style="fill: currentColor" width="26" height="2"/>
		</symbol>

		<!-- End mark -->
		<symbol id="end_mark" viewBox="0 0 53 37">
			<title>
				End
			</title>
			<path style="fill: currentColor" d="M0.8,19.5v-2.4l13.8-7v2.5L3.7,18.3l10.9,5.7v2.5L0.8,19.5z"/>
			<path style="fill: currentColor" d="M52.2,19.5l-13.8,7.1v-2.5l10.9-5.7l-10.9-5.7v-2.5l13.8,7V19.5z"/>
			<path style="fill: currentColor" d="M32,0h2.4L22.9,36.9h-2.5L32,0z"/>
		</symbol>
	</defs>
</svg>